<?xml version="1.0" encoding="utf-8"?>
<!-- Generator: Adobe Illustrator 25.2.0, SVG Export Plug-In . SVG Version: 6.00 Build 0)  -->
<svg version="1.1" id="Laag_1" xmlns="http://www.w3.org/2000/svg" xmlns:xlink="http://www.w3.org/1999/xlink" x="0px" y="0px"
	 viewBox="0 0 600 300" style="enable-background:new 0 0 600 300;" xml:space="preserve">
<style type="text/css">
	.st0{fill:none;}
	.st1{fill:#369EAE;}
	.st2{fill:#474656;}
	.st3{fill:#DE3F38;}
	.st4{fill:#020203;}
</style>
<g>
	<g>
		<g>
			<path class="st0" d="M216,120.5c2.7,0,4.9,2.2,4.9,4.9V148l12.5,12.5c1.9,1.9,1.9,5,0,7c-1.9,1.9-5,1.9-7,0l-8.8-8.8
				c-1.6,11-6.3,20.9-13.1,29c3.6,1.1,7.5,1.7,11.5,1.7c21.7,0,39.3-17.6,39.3-39.3c0-21.7-17.6-39.3-39.3-39.3
				c-4,0-7.8,0.6-11.5,1.7c2.8,3.3,5.2,6.8,7.2,10.7C212.5,121.5,214.2,120.5,216,120.5z"/>
			<path class="st1" d="M166.8,150c0-20.3,12.4-37.8,30-45.3c-10.1-8.2-22.9-13.1-36.9-13.1c-32.3,0-58.4,26.2-58.4,58.4
				s26.2,58.4,58.4,58.4c14,0,26.8-4.9,36.9-13.1C179.2,187.8,166.8,170.3,166.8,150z"/>
			<path class="st2" d="M216,100.8c-6.8,0-13.3,1.4-19.2,3.9c2.8,2.3,5.4,4.9,7.8,7.6c3.6-1.1,7.5-1.7,11.5-1.7
				c21.7,0,39.3,17.6,39.3,39.3c0,21.7-17.6,39.3-39.3,39.3c-4,0-7.8-0.6-11.5-1.7c-2.3,2.8-4.9,5.3-7.8,7.6
				c5.9,2.5,12.4,3.9,19.2,3.9c27.2,0,49.2-22,49.2-49.2C265.2,122.8,243.2,100.8,216,100.8z"/>
			<path class="st2" d="M233.4,167.4c1.9-1.9,1.9-5,0-7L220.9,148v-22.6c0-2.7-2.2-4.9-4.9-4.9c-1.9,0-3.5,1-4.3,2.5
				c4.2,8.1,6.6,17.2,6.6,27c0,2.9-0.2,5.8-0.6,8.6l8.8,8.8C228.4,169.3,231.5,169.3,233.4,167.4z"/>
			<path class="st3" d="M204.5,187.6c-16.1-4.9-27.9-19.9-27.9-37.6s11.7-32.7,27.9-37.6c-2.3-2.8-4.9-5.3-7.8-7.6
				c-17.6,7.5-30,24.9-30,45.3s12.4,37.8,30,45.3C199.6,193,202.2,190.4,204.5,187.6z"/>
			<path class="st4" d="M212.4,153.3l0.1,0.1L212.4,153.3C212.4,153.3,212.4,153.3,212.4,153.3z"/>
			<path class="st2" d="M211.7,123c-0.4,0.7-0.6,1.5-0.6,2.4V150c0,0,0,0,0,0.1c0,0,0,0.1,0,0.1c0,0.1,0,0.1,0,0.2c0,0,0,0,0,0.1
				c0,0,0,0.1,0,0.1c0,0,0,0.1,0,0.1c0,0,0,0,0,0c0,0.1,0,0.1,0,0.2c0,0,0,0.1,0,0.1c0,0,0,0.1,0,0.1c0,0.2,0.1,0.4,0.2,0.6
				c0,0,0,0,0,0.1c0,0.1,0,0.1,0.1,0.2c0,0,0,0,0,0.1c0,0,0,0.1,0.1,0.1c0,0,0,0.1,0,0.1c0,0,0,0.1,0.1,0.1c0,0,0,0,0,0.1
				c0,0,0,0.1,0.1,0.1c0.1,0.1,0.1,0.2,0.2,0.3c0,0,0.1,0.1,0.1,0.1c0,0,0,0,0,0.1c0,0,0,0.1,0.1,0.1c0,0,0.1,0.1,0.1,0.1
				c0,0,0.1,0.1,0.1,0.1c0.1,0.1,0.1,0.1,0.2,0.2l5.1,5.1c0.4-2.8,0.6-5.7,0.6-8.6C218.3,140.3,215.9,131.1,211.7,123z"/>
		</g>
		<g>
			<path class="st2" d="M109.8,157.4c-9.3,0-18.5,0.1-27.8,0c-6.2-0.1-11.2-2-11.5-7.2c-0.3-5.5,5.1-7.4,11-7.5
				c19.1-0.2,38.2-0.2,57.3,0c6,0.1,11.3,2.1,11.1,7.5c-0.2,5.2-5.3,7.1-11.5,7.2C128.9,157.4,119.3,157.4,109.8,157.4z"/>
			<path class="st2" d="M100.9,118.9c-11.3,0-22.6,0.1-33.9,0c-7.5-0.1-13.7-2-14-7.2c-0.4-5.5,6.3-7.4,13.5-7.5
				c23.3-0.2,46.6-0.2,70,0c7.3,0.1,13.8,2.1,13.5,7.5c-0.3,5.2-6.5,7.1-14,7.2C124.3,119,112.6,118.9,100.9,118.9z"/>
			<path class="st2" d="M119.2,181.5c6.9,0,13.9-0.1,20.8,0c5.5,0.1,9.8,2,9.9,6.7c0.1,4.7-4.1,6.8-9.7,6.9
				c-13.9,0.2-27.8,0.2-41.6,0c-5.9-0.1-10.5-2.2-10.4-7.1c0.1-4.6,4.7-6.5,10.2-6.6C105.4,181.4,112.3,181.5,119.2,181.5z"/>
		</g>
	</g>
	<g>
		<path class="st3" d="M287.6,145.6v-9.4h35.4v9.4H287.6z M323.1,176.1v9.9c-1.3,0.5-2.6,0.8-3.9,0.9c-1.3,0.2-2.7,0.2-4.1,0.2
			c-5.6,0-10-1.6-13.1-4.8c-3.1-3.2-4.6-7.8-4.6-13.7V124l12.4-4.2v48.3c0,2.3,0.4,4,1.1,5.3c0.7,1.3,1.7,2.2,2.9,2.7
			c1.2,0.5,2.6,0.8,4.1,0.8c0.9,0,1.7-0.1,2.5-0.2C321.2,176.6,322.1,176.4,323.1,176.1z"/>
		<path class="st3" d="M350,187.2c-9.2,0-16.4-2.1-21.7-6.3l3.5-8.8c2.7,2,5.5,3.5,8.7,4.5c3.1,1,6.4,1.5,9.8,1.5
			c3.1,0,5.4-0.5,7-1.5c1.6-1,2.4-2.4,2.4-4.2c0-1.5-0.6-2.7-1.7-3.6c-1.1-0.9-3.1-1.7-5.8-2.3l-8.4-1.9c-4.6-1-8-2.7-10.3-5
			c-2.3-2.4-3.4-5.4-3.4-9c0-3.1,0.9-5.8,2.6-8.1c1.7-2.4,4.1-4.2,7.3-5.5c3.1-1.3,6.7-2,10.9-2c3.6,0,7,0.5,10.4,1.6
			c3.3,1.1,6.2,2.7,8.7,4.7l-3.6,8.6c-2.5-1.9-5.1-3.3-7.7-4.3c-2.6-0.9-5.2-1.4-7.8-1.4c-2.9,0-5.1,0.5-6.7,1.6
			c-1.6,1.1-2.4,2.5-2.4,4.4c0,1.5,0.5,2.6,1.4,3.5c1,0.9,2.6,1.6,5,2.1l8.5,2.1c5,1.1,8.6,2.8,10.9,5.1c2.3,2.4,3.4,5.5,3.4,9.3
			c0,4.6-1.9,8.2-5.6,10.9C361.5,185.8,356.5,187.2,350,187.2z"/>
		<path class="st2" d="M375.2,145.6v-9.4h33.1v9.4H375.2z M410.1,123.9c-1.9-0.5-3.5-0.8-5-0.8c-1.5,0-2.8,0.3-4,0.8
			c-1.2,0.6-2.2,1.5-2.9,2.8c-0.7,1.3-1,3-1,5.2v54.5h-12.4v-55.1c0-6,1.5-10.6,4.5-13.7c3-3.2,7.3-4.8,13-4.8
			c1.4,0,2.8,0.1,4.1,0.2c1.3,0.1,2.6,0.4,3.8,0.9V123.9z M417.9,186.5v-73.3h12.4v73.3H417.9z"/>
		<path class="st2" d="M487.1,180.9c-2.4,2-5.3,3.5-8.8,4.6c-3.5,1.1-7,1.6-10.6,1.6c-5.4,0-10.1-1-14.1-3.1c-3.9-2.1-7-5-9.1-9
			c-2.1-3.9-3.2-8.6-3.2-13.9c0-5.2,1-9.7,3.1-13.7c2.1-3.9,4.9-7,8.6-9.3s7.9-3.3,12.6-3.3c4.6,0,8.6,1,11.9,3
			c3.3,2,5.9,4.9,7.7,8.7c1.8,3.8,2.7,8.3,2.7,13.4v1.9h-35.7l0.1-6.7h28.3l-3.4,3.4c0.1-4.8-0.9-8.5-2.8-11c-2-2.5-4.8-3.8-8.5-3.8
			c-4,0-7.1,1.4-9.3,4.2c-2.2,2.8-3.3,6.9-3.3,12.1c0,6,1.2,10.4,3.7,13.2c2.5,2.8,6.2,4.2,11.1,4.2c2.7,0,5.4-0.4,8-1.3
			c2.6-0.9,5.1-2.2,7.3-3.9L487.1,180.9z"/>
		<path class="st2" d="M505.3,186.5h-14.8l21.2-25.9l7.1-8.8l12.2-15.6h14.8L526,160.6l-7.3,8.9L505.3,186.5z M532.4,186.5l-13.6-17
			l-7.1-8.9l-19.9-24.4h14.7l12.2,15.6l7.3,8.8l21,25.9H532.4z"/>
	</g>
</g>
</svg>
